HIERARCHY
ROOT Hips
{
	OFFSET 0.000000 0.000000 0.000000
	CHANNELS 6 Xposition Yposition Zposition Zrotation Yrotation Xrotation 
	JOINT LHipJoint
	{
		OFFSET 0.000000 0.000000 0.000000
		CHANNELS 3 Zrotation Yrotation Xrotation
		JOINT LeftUpLeg
		{
			OFFSET 1.363060 -1.794630 0.839290
			CHANNELS 3 Zrotation Yrotation Xrotation
			JOINT LeftLeg
			{
				OFFSET 2.448110 -6.726130 0.000000
				CHANNELS 3 Zrotation Yrotation Xrotation
				JOINT LeftFoot
				{
					OFFSET 2.562200 -7.039590 0.000000
					CHANNELS 3 Zrotation Yrotation Xrotation
					JOINT LeftToeBase
					{
						OFFSET 0.157640 -0.433110 2.322550
						CHANNELS 3 Zrotation Yrotation Xrotation
						End Site
						{
							OFFSET 0.000000 0.000000 0.000000
						}
					}
				}
			}
		}
	}
	JOINT RHipJoint
	{
		OFFSET 0.000000 0.000000 0.000000
		CHANNELS 3 Zrotation Yrotation Xrotation
		JOINT RightUpLeg
		{
			OFFSET -1.305520 -1.794630 0.839290
			CHANNELS 3 Zrotation Yrotation Xrotation
			JOINT RightLeg
			{
				OFFSET -2.542530 -6.985550 0.000000
				CHANNELS 3 Zrotation Yrotation Xrotation
				JOINT RightFoot
				{
					OFFSET -2.568260 -7.056230 0.000000
					CHANNELS 3 Zrotation Yrotation Xrotation
					JOINT RightToeBase
					{
						OFFSET -0.164730 -0.452590 2.363150
						CHANNELS 3 Zrotation Yrotation Xrotation
						End Site
						{
							OFFSET 0.000000 0.000000 0.000000
						}
					}
				}
			}
		}
	}
}
MOTION
Frames: 33
Frame Time: 0.008333
25.552524 17.401235 2.168421 108.458803 -86.160515 -78.056211 -7.678846 1.567764 4.964186 -17.549361 -10.609333 -55.515656 -2.017292 1.293795 34.707780 2.504688 10.890416 -6.532567 1.059000 0.000000 -37.963300 11.828566 -4.088449 1.348705 4.682179 -5.831445 -6.694706 1.279101 -0.494328 6.447896 0.116709 4.911392 25.878426 2.499900 0.000000 -72.667000
25.337799 17.431293 2.172241 105.564551 -86.245388 -75.250508 -7.622519 1.660369 5.101561 -17.467744 -10.909098 -54.589787 -2.108960 1.114873 32.739091 2.421445 10.772639 -5.574722 1.271500 0.000000 -38.813300 11.904504 -4.102671 1.212247 4.607563 -6.284059 -6.383641 1.195669 -0.554788 6.943262 0.038755 4.727700 26.804988 2.500800 0.000000 -70.727000
25.124221 17.450088 2.176696 102.419620 -86.345850 -72.218400 -7.579089 1.734485 5.218115 -17.310989 -11.212811 -53.668504 -2.168774 0.956090 31.050538 2.351481 10.700821 -4.734768 1.453100 -0.000000 -39.336200 11.955656 -4.101222 1.076421 4.579418 -6.623216 -6.092817 1.102745 -0.612824 7.703301 -0.047661 4.143835 27.114222 2.226300 0.000000 -68.747300
24.906071 17.452116 2.191015 87.510899 -86.590772 -57.293251 -7.545615 1.878719 5.586483 -16.536808 -12.340716 -53.113178 -2.106817 0.837108 29.801678 2.320955 10.734474 -3.923679 1.640400 0.000001 -39.604700 11.954780 -4.058634 0.821159 5.076983 -7.552642 -5.891703 1.074149 -0.623573 8.513174 -0.114195 3.112652 26.968316 1.643600 -0.000000 -66.701100
24.694957 17.447666 2.197253 84.154134 -86.672280 -54.108907 -7.540036 1.920681 5.641704 -16.281827 -12.577477 -52.220181 -2.108148 0.733645 28.752195 2.278512 10.710291 -3.427682 1.735500 -0.000001 -39.458200 11.944308 -4.028159 0.690569 5.122011 -7.658154 -5.626696 0.956867 -0.680022 9.751217 -0.227198 1.786258 26.209847 0.901900 -0.000000 -64.893200
24.484680 17.431377 2.204570 81.001503 -86.766534 -51.158254 -7.552021 1.944253 5.660337 -16.009240 -12.755171 -51.346079 -2.087184 0.658861 28.046472 2.249805 10.693410 -3.157752 1.775800 0.000000 -39.008701 11.910199 -3.985902 0.567703 5.192964 -7.652874 -5.378577 0.829869 -0.736325 11.189213 -0.362641 0.185152 25.039066 0.031400 -0.000001 -63.242100
24.275756 17.403048 2.212849 78.248162 -86.868489 -48.632701 -7.578640 1.951358 5.644712 -15.745449 -12.870347 -50.497805 -2.049697 0.611888 27.689727 2.237012 10.684740 -3.150114 1.755501 -0.000000 -38.289600 11.860467 -3.931617 0.452175 5.267057 -7.570052 -5.174807 0.697443 -0.794259 12.832443 -0.521434 -1.566816 23.513450 -0.865900 -0.000001 -61.587800
24.067555 17.362842 2.222126 75.964576 -86.985131 -46.596771 -7.618438 1.942612 5.595023 -15.502431 -12.913237 -49.689747 -2.000598 0.591793 27.688929 2.240793 10.678877 -3.440076 1.667500 0.000000 -37.340600 11.799801 -3.868201 0.349413 5.342521 -7.407236 -5.019954 0.562770 -0.854027 14.633512 -0.706502 -3.395517 21.751055 -1.722200 0.000000 -60.061901
23.860373 17.310837 2.232205 74.262928 -87.116284 -45.151753 -7.667413 1.920262 5.516277 -15.294833 -12.886913 -48.937855 -1.944991 0.596093 28.040542 2.263263 10.680622 -4.053694 1.508300 -0.000001 -36.204000 11.736804 -3.798120 0.261984 5.405598 -7.185153 -4.943017 0.430669 -0.917905 16.585613 -0.913023 -5.197851 19.825775 -2.468500 -0.000000 -58.605300
23.653812 17.247365 2.242876 73.199479 -87.264942 -44.341452 -7.722170 1.886213 5.413449 -15.128761 -12.795305 -48.261554 -1.886860 0.622274 28.736781 2.306004 10.694174 -5.006368 1.275100 -0.000000 -34.920499 11.678129 -3.725059 0.194155 5.451855 -6.911624 -4.970101 0.305075 -0.988095 18.674805 -1.133487 -6.897948 17.816081 -3.064400 -0.000000 -57.256800
23.447991 17.172985 2.253958 72.758629 -87.434598 -44.140046 -7.780469 1.842087 5.291391 -15.002415 -12.643193 -47.680304 -1.829029 0.668214 29.764647 2.369798 10.721972 -6.299771 0.966501 0.000000 -33.529500 11.627830 -3.652962 0.149708 5.484408 -6.589694 -5.124082 0.189417 -1.066708 20.891035 -1.357389 -8.436985 15.781458 -3.490700 0.000000 -56.019600
23.243045 17.087989 2.264754 73.213997 -87.606808 -44.800952 -7.834557 1.791175 5.163249 -14.932036 -12.463489 -47.214628 -1.774478 0.729723 31.094174 2.458860 10.787119 -7.913233 0.586600 0.000000 -32.061800 11.598477 -3.583064 0.127766 5.469818 -6.263700 -5.480178 0.088308 -1.159604 23.306275 -1.565604 -9.706736 13.700102 -3.708600 0.000000 -54.669801
23.038658 16.993639 2.275285 74.280160 -87.795622 -46.030411 -7.888865 1.733314 5.028573 -14.892035 -12.247817 -46.879376 -1.723030 0.806649 32.703859 2.569938 10.876308 -9.819529 0.134800 0.000000 -30.556800 11.582513 -3.520293 0.135948 5.450299 -5.889849 -6.018107 -0.000648 -1.264580 25.852905 -1.755655 -10.753053 11.670482 -3.768800 0.000000 -53.580900
22.835635 16.890793 2.284814 76.210640 -87.974739 -48.070230 -7.937782 1.670491 4.899123 -14.896509 -12.033267 -46.680740 -1.675638 0.895094 34.545277 2.705466 11.011059 -11.963115 -0.381101 -0.000000 -29.051100 11.588761 -3.463627 0.168965 5.393456 -5.514498 -6.803476 -0.074431 -1.387263 28.610479 -1.910804 -11.497978 9.627161 -3.653200 -0.000000 -52.390300
22.633925 16.780911 2.293097 78.837453 -88.139144 -50.744246 -7.983398 1.604206 4.779459 -14.934240 -11.831661 -46.619413 -1.631383 0.993535 36.571658 2.862664 11.189444 -14.282515 -0.954400 -0.000000 -27.590000 11.613489 -3.413148 0.227625 5.315290 -5.127193 -7.836827 -0.136806 -1.526766 31.558247 -2.030019 -11.979225 7.602833 -3.406000 0.000000 -51.269800
22.433970 16.665522 2.299717 82.100555 -88.271220 -53.989405 -8.025154 1.536950 4.675439 -15.008323 -11.664916 -46.681960 -1.589611 1.099267 38.722401 3.039131 11.416875 -16.703591 -1.574800 -0.000000 -26.224600 11.657165 -3.365645 0.306309 5.206936 -4.746440 -9.130903 -0.190587 -1.684257 34.707722 -2.110857 -12.208487 5.581146 -3.053200 0.000000 -50.127700
22.235901 16.546569 2.304405 85.756276 -88.359679 -57.565807 -8.063485 1.472549 4.589947 -15.118994 -11.546601 -46.843344 -1.549573 1.210014 40.932823 3.230506 11.692730 -19.151047 -2.230000 -0.000000 -25.008800 11.718120 -3.316007 0.398003 5.066239 -4.384990 -10.674995 -0.240702 -1.859036 38.042769 -2.156216 -12.224913 3.564710 -2.630900 0.000000 -48.938300
22.040254 16.426218 2.307176 89.399966 -88.400089 -61.080351 -8.098463 1.416402 4.522803 -15.264772 -11.482142 -47.065516 -1.511101 1.323554 43.134205 3.430624 12.010573 -21.552496 -2.905601 0.000000 -23.992999 11.794408 -3.257098 0.493568 4.894256 -4.055618 -12.438758 -0.293178 -2.048933 41.527512 -2.172548 -12.082038 1.566186 -2.176299 0.000000 -47.694000
21.847033 16.306862 2.308267 92.550540 -88.397759 -64.067802 -8.129733 1.374248 4.471318 -15.438923 -11.468560 -47.302408 -1.474548 1.437419 45.259978 3.632147 12.358363 -23.845897 -3.585300 0.000000 -23.216900 11.884142 -3.181328 0.583638 4.697947 -3.768615 -14.378382 -0.353961 -2.250566 45.110811 -2.168533 -11.840197 -0.394121 -1.721600 -0.000000 -46.405201
21.656144 16.191058 2.308173 94.794395 -88.363841 -66.133893 -8.157339 1.350311 4.430489 -15.631474 -11.495911 -47.500789 -1.440944 1.548291 47.245755 3.827304 12.720663 -25.980423 -4.251500 -0.000000 -22.704300 11.984627 -3.082510 0.659137 4.488080 -3.532412 -16.440611 -0.427644 -2.460126 48.729612 -2.153715 -11.559495 -2.290426 -1.291300 0.000000 -45.092900
21.467750 16.081485 2.307525 95.884864 -88.311741 -67.055763 -8.183192 1.345616 4.393720 -15.829437 -11.548845 -47.604887 -1.411958 1.652132 49.032691 4.008577 13.079667 -27.919215 -4.886800 0.000000 -22.459900 12.090631 -2.957245 0.712147 4.278765 -3.351741 -18.569691 -0.516706 -2.674168 52.316604 -2.137331 -11.294403 -4.096596 -0.899700 -0.000000 -43.787300
21.281110 15.980599 2.307151 95.765152 -88.253564 -66.793135 -8.211502 1.358514 4.355721 -16.017381 -11.610591 -47.566716 -1.389617 1.744320 50.570458 4.169916 13.418551 -29.639973 -5.475500 -0.000000 -22.467900 12.194346 -2.805772 0.738301 4.084967 -3.226255 -20.717720 -0.621205 -2.889224 55.805921 -2.126929 -11.086924 -5.791066 -0.551800 -0.000000 -42.507100
21.095778 15.890630 2.307834 94.498628 -88.200323 -65.423823 -8.248615 1.384765 4.311257 -16.177275 -11.661135 -47.347090 -1.376173 1.820561 51.820015 4.306499 13.720931 -31.133581 -6.004601 -0.000000 -22.697500 12.285552 -2.631395 0.735979 3.924685 -3.148771 -22.844153 -0.738987 -3.102022 59.137122 -2.128026 -10.965283 -7.360677 -0.245000 -0.000000 -41.237600
20.910378 15.813453 2.309855 92.281382 -88.146696 -63.145290 -8.297062 1.421619 4.262525 -16.305266 -11.698406 -46.922577 -1.373656 1.875949 52.745076 4.417716 13.983217 -32.395861 -6.466200 -0.000000 -23.089100 12.357601 -2.437667 0.709459 3.796588 -3.113074 -24.933682 -0.866834 -3.309259 62.260750 -2.142459 -10.934599 -8.794269 0.026500 0.000000 -39.999900
20.724398 15.750567 2.313479 89.314878 -88.093195 -60.164334 -8.360187 1.464378 4.207105 -16.393521 -11.709215 -46.272879 -1.383861 1.906929 53.324515 4.502698 14.198164 -33.433281 -6.855500 -0.000000 -23.587399 12.403540 -2.230404 0.662621 3.706509 -3.106325 -26.965132 -0.999592 -3.508353 65.132104 -2.169986 -10.987572 -10.091897 0.269699 0.000000 -38.763300
20.536429 15.703022 2.319057 85.743182 -88.050627 -56.620872 -8.442704 1.507172 4.144302 -16.422492 -11.676154 -45.401242 -1.406995 1.911105 53.553885 4.560628 14.356849 -34.256087 -7.167900 0.000000 -24.139800 12.415713 -2.017651 0.604332 3.673626 -3.102290 -28.930917 -1.131040 -3.695979 67.714466 -2.209113 -11.108821 -11.260188 0.490900 -0.000000 -37.481001
20.345719 15.671420 2.326327 81.752773 -88.018369 -52.688370 -8.542605 1.547751 4.078259 -16.388766 -11.599337 -44.322667 -1.442202 1.886352 53.432659 4.592968 14.459394 -34.869528 -7.402100 0.000000 -24.695000 12.393459 -1.804874 0.545616 3.698924 -3.080723 -30.838863 -1.255104 -3.869420 69.983002 -2.255558 -11.266634 -12.307614 0.694100 -0.000000 -36.139300
20.151121 15.656041 2.334597 77.592414 -87.993891 -48.610442 -8.654252 1.585919 4.009381 -16.299660 -11.475268 -43.045435 -1.488403 1.831631 52.964859 4.600790 14.505971 -35.275966 -7.557000 -0.000000 -25.222500 12.340761 -1.596038 0.494890 3.772323 -3.026124 -32.688611 -1.365888 -4.027331 71.919839 -2.303404 -11.421536 -13.245652 0.880400 0.000000 -34.747800
19.952297 15.656820 2.343327 73.432559 -87.985492 -44.549525 -8.773620 1.621830 3.937482 -16.154012 -11.294400 -41.592618 -1.543198 1.747796 52.167186 4.583200 14.490800 -35.471812 -7.627900 0.000000 -25.725000 12.260845 -1.394931 0.461546 3.895007 -2.915495 -34.482589 -1.458050 -4.167731 73.513627 -2.347509 -11.539390 -14.086935 1.049001 0.000000 -33.322800
19.748050 15.673365 2.351921 69.345990 -88.002545 -40.556482 -8.896959 1.657443 3.867786 -15.947374 -11.057305 -40.008728 -1.602427 1.636820 51.064175 4.538828 14.409981 -35.440987 -7.607700 -0.000000 -26.244000 12.157047 -1.203441 0.457421 4.069999 -2.725472 -36.237932 -1.527294 -4.287678 74.759704 -2.383758 -11.592113 -14.840908 1.197600 -0.000000 -31.897800
19.538098 15.705225 2.359560 65.480483 -88.050106 -36.776122 -9.019518 1.696111 3.798817 -15.688765 -10.756109 -38.318240 -1.662952 1.502173 49.679683 4.464788 14.256916 -35.161820 -7.487600 0.000000 -26.853600 12.034834 -1.021748 0.487803 4.286796 -2.443357 -37.952375 -1.570544 -4.385895 75.657143 -2.408441 -11.556745 -15.514618 1.322900 0.000000 -30.539400
19.322279 15.751692 2.365502 61.938869 -88.133852 -33.304354 -9.139005 1.741403 3.729148 -15.385341 -10.382459 -36.548520 -1.721275 1.348267 48.040723 4.357051 14.024343 -34.603539 -7.257701 0.000000 -27.657400 11.898067 -0.849765 0.556355 4.535965 -2.060106 -39.622375 -1.585544 -4.460913 76.205666 -2.419643 -11.421629 -16.111606 1.421700 0.000000 -29.321000
19.100408 15.812017 2.369148 58.802532 -88.256620 -30.219875 -9.255044 1.796555 3.656581 -15.045193 -9.927548 -34.724655 -1.774031 1.180438 46.176596 4.211210 13.705774 -33.730713 -6.909300 0.000000 -28.775600 11.749348 -0.687431 0.663963 4.806468 -1.573765 -41.240088 -1.571020 -4.511752 76.405841 -2.417132 -11.185942 -16.632052 1.491800 -0.000000 -28.317700
